# xmcd
#
# Track frame offsets:
#	150
#	18536
#	35049
#	58373
#	75651
#	95791
#	112924
#	131048
#	150296
#	170207
#	191454
#	210266
#	225267
#	249429
#	274169
#	298627
#	312288
#	327892
#
# Disc length: 4596 seconds
#
# Revision: 0
# Processed by: cddbd v1.5.2PL0 Copyright (c) Steve Scherf et al.
# Submitted via: audiograbber 1.83.01
#
DISCID=f911f212
DTITLE=Tina Turner - Tina
DYEAR=2008
DGENRE=Blues
TTITLE0=Steamy Windows
TTITLE1=River Deep Mountain High
TTITLE2=Better Be Good To Me
TTITLE3=The Acid Queen
TTITLE4=What You Get Is What You See
TTITLE5=What's Love Got To Do With It
TTITLE6=Private Dancer
TTITLE7=We Don't Need Another Hero
TTITLE8=I Don't Want To Fight
TTITLE9=Goldeneye
TTITLE10=Let's Stay Together (Live)
TTITLE11=I Can't Stand The Rain (Live)
TTITLE12=Addicted To Love (Live)
TTITLE13=The Best (Live)
TTITLE14=Proud Mary
TTITLE15=Nutbush City Limits
TTITLE16=It Would Be A Crime
TTITLE17=I'm Ready
EXTD=
EXTT0=
EXTT1=
EXTT2=
EXTT3=
EXTT4=
EXTT5=
EXTT6=very sad lyrics
EXTT7=
EXTT8=
EXTT9=soundtrack of goldeneye movie
EXTT10=
EXTT11=
EXTT12=
EXTT13=
EXTT14=
EXTT15=
EXTT16=
EXTT17=
PLAYORDER=
